# xmcd
#
# Track frame offsets: 
#        150
#        12665
#        27050
#        35625
#        50312
#        64735
#        82692
#        93037
#        105852
#        118682
#        137575
#        151425
#        186515
#        199697
#
# Disc length: 2767 seconds
#
# Revision: 3
# Processed by: cddbd v1.5.2PL0 Copyright (c) Steve Scherf et al.
# Submitted via: ExactAudioCopy v0.99pb5
#
DISCID=aa0acd0e
DTITLE=The Persuasions - On The Good Ship Lollipop
DYEAR=1999
DGENRE=Childrens
TTITLE0=Persuasions' Nursery Rhyme Medley
TTITLE1=Teddy Bears' Picnic
TTITLE2=Good Morning To You
TTITLE3=A Cappella Fellas
TTITLE4=My Daddy Do, Too
TTITLE5=On The Good Ship Lollipop
TTITLE6=I'm So Glad (I've Got Skin)
TTITLE7=Big Rock Candy Mountain
TTITLE8=How Much Is That Doggie In The Window?
TTITLE9=On Top Of Spaghetti
TTITLE10=Shoo Fly, Don't Bother Me
TTITLE11=Train Song Medley
TTITLE12=Swing Low, Sweet Chariot
TTITLE13=I Love You (There's No Doubt About It)
EXTD=YEAR: 1999
EXTT0=
EXTT1=
EXTT2=
EXTT3=
EXTT4=
EXTT5=
EXTT6=
EXTT7=
EXTT8=
EXTT9=
EXTT10=
EXTT11=
EXTT12=
EXTT13=
PLAYORDER=
